<svg width="413" height="108" viewBox="0 0 413 108" fill="none" xmlns="http://www.w3.org/2000/svg">
<g clip-path="url(#clip0_58:198)">
<path fill-rule="evenodd" clip-rule="evenodd" d="M47.4064 47.7493V0H15.2664C15.9092 0.643088 16.0699 0.803859 16.7127 1.76849C19.1232 5.62702 18.6411 10.7717 15.7485 13.9872C14.6236 15.1126 13.8201 15.9164 11.731 16.7203C11.8917 16.7203 12.0524 16.881 12.2131 16.881L13.0166 17.2026C18.3197 19.1319 22.6586 24.1158 23.7835 30.0643C24.587 33.9229 23.7835 37.9422 22.4979 40.8361C21.6944 42.4438 20.8909 43.4084 19.9267 44.6946C19.4446 45.3377 18.9625 45.6592 18.3197 46.4631C17.8376 46.9454 16.8734 47.5885 16.552 47.91H47.4064V47.7493Z" fill="#121C4E"/>
<path fill-rule="evenodd" clip-rule="evenodd" d="M0 47.7493H13.1774C13.3381 47.5885 13.6595 47.5885 14.6237 46.9454C22.6588 42.283 23.3016 31.9936 18.1591 26.045C15.9093 23.4727 12.5346 21.2219 7.71362 21.2219V15.9164C8.67782 15.9164 9.96342 16.0772 10.6062 16.238C16.07 14.3087 17.8377 7.87782 14.463 3.21544C12.5346 0.803859 10.2848 0.321544 9.48132 0H0V47.7493Z" fill="#121C4E"/>
<path d="M100.117 47.5885H65.2446V0.160767H102.849C106.545 0.160767 109.277 0.964626 110.884 2.57234C112.651 4.18006 113.455 6.75241 113.455 10.1286V15.4341C113.455 18.1672 112.812 20.2573 111.366 21.7042C110.723 22.3473 109.919 22.8296 108.955 23.3119C109.919 23.7942 110.884 24.4373 111.526 25.2412C112.973 27.0097 113.776 29.2605 113.776 32.1544V37.9422C113.776 41.3184 112.651 43.8907 110.241 45.4984C107.991 46.7846 104.616 47.5885 100.117 47.5885ZM74.8867 39.3891H100.117C101.724 39.3891 102.849 39.0676 103.331 38.5852C103.652 38.2637 104.134 37.2991 104.134 35.0483V31.1897C104.134 28.9389 103.652 27.9743 103.331 27.6528C102.849 27.1704 101.724 26.8489 100.117 26.8489H74.8867V39.3891ZM74.8867 18.8103H100.117C102.045 18.8103 102.849 18.4888 103.009 18.1672C103.491 17.8457 103.652 17.0418 103.652 15.7556V11.254C103.652 10.1286 103.491 9.32476 103.009 9.00322C102.688 8.84245 102.045 8.36013 99.9559 8.36013H74.8867V18.8103Z" fill="#121C4E"/>
<path d="M180.306 47.5885H169.539L163.754 36.4952H134.346L128.561 47.5885H118.758L144.631 0.160767H153.951L180.306 47.5885ZM138.524 28.6174H159.576L149.13 8.5209L138.524 28.6174Z" fill="#121C4E"/>
<path d="M203.447 47.5885H193.805V27.1704L169.539 0.160767H181.752L198.947 19.7749L215.499 0.160767H227.552L203.447 27.0097V47.5885Z" fill="#121C4E"/>
<path d="M289.422 47.5885H272.87L243.944 28.1351V47.5885H234.302V0.160767H243.944V18.6495L270.941 0.160767H285.726L251.336 22.9904L289.422 47.5885Z" fill="#121C4E"/>
<path d="M350.97 47.5885H340.203L334.418 36.4952H305.01L299.225 47.5885H289.422L315.295 0.160767H324.615L350.97 47.5885ZM309.349 28.6174H330.4L319.794 8.5209L309.349 28.6174Z" fill="#121C4E"/>
<path d="M413 47.5885H398.537L380.057 29.9036H368.165V47.5885H358.523V0.160767H396.127C399.823 0.160767 402.555 0.964626 404.162 2.57234C405.93 4.18006 406.733 6.75241 406.733 10.1286V20.2573C406.733 23.6335 405.93 26.045 404.162 27.6528C402.394 29.2605 399.823 30.0643 396.127 30.0643H392.27L413 47.5885ZM368.165 22.0257H393.074C395.163 22.0257 395.966 21.5434 396.288 21.2219C396.77 20.7396 397.091 19.7749 397.091 18.328V11.7363C397.091 10.2894 396.77 9.32476 396.288 8.84245C395.966 8.5209 395.163 8.03859 393.234 8.03859H368.326V22.0257H368.165Z" fill="#121C4E"/>
<path d="M279.297 41.9614L280.422 42.283C281.868 42.4438 282.351 43.2476 282.993 43.5692C283.636 43.8907 284.44 44.0515 284.44 44.6946C284.44 45.0161 284.279 45.3376 284.118 45.4984C281.226 48.0708 277.53 50.8039 272.709 53.6978C265.477 58.1994 257.281 62.5402 248.121 66.7203C251.175 68.4888 255.192 71.2219 260.335 75.2412C267.245 80.3859 271.423 82.7975 273.03 82.7975C273.512 82.7975 273.994 82.6367 274.476 82.3152C274.798 81.9936 275.119 81.8329 275.119 81.8329C275.44 81.8329 275.601 81.9936 275.601 82.3152C275.601 82.6367 275.28 83.4406 274.476 84.8875C273.833 86.3345 273.191 87.1383 272.709 87.6206C272.226 88.103 271.423 88.2637 270.298 88.2637C269.173 88.2637 267.727 87.7814 265.959 86.656C264.191 85.5306 262.263 84.2444 260.174 82.6367C258.085 81.029 255.996 79.4213 253.907 77.8136C248.604 73.6335 245.068 71.2219 243.14 70.5788C236.712 80.8682 233.337 86.1737 233.176 86.4952C233.016 86.8168 232.694 87.1383 232.533 87.2991C232.212 87.4599 232.051 87.6206 232.051 87.6206L230.766 87.7814H229.641C229.319 87.7814 229.159 87.7814 228.998 87.9422C228.837 88.103 228.677 88.103 228.516 88.103C228.355 88.103 228.195 88.2637 228.195 88.2637C228.034 88.4245 227.873 88.4245 227.712 88.4245C227.552 88.4245 227.23 88.2637 226.748 87.9422C226.427 87.6206 226.105 87.2991 226.105 86.9776C226.105 86.656 226.266 86.3345 226.588 85.6914C226.909 85.0483 230.766 79.2605 238.158 68.1673H237.515C236.069 68.1673 235.426 67.8457 235.426 67.0418C235.426 66.238 235.747 65.4341 236.551 64.791C237.194 63.9872 237.997 63.6656 238.64 63.6656C239.283 63.6656 240.086 63.6656 241.051 63.8264C245.068 57.8779 248.121 53.3762 250.211 50C247.8 52.2508 245.39 53.3762 243.3 53.3762C242.175 53.3762 241.372 53.0547 240.729 52.2508C240.086 51.447 239.765 50.6431 239.765 49.8393C239.765 48.8746 239.926 48.2315 240.408 47.5885C240.89 46.9454 241.372 46.6238 241.854 46.3023C242.336 46.1415 242.658 45.9807 242.818 45.9807C242.979 45.9807 243.14 46.1415 243.14 46.3023L242.818 47.1061C242.818 47.4277 243.3 47.5885 244.104 47.5885C244.907 47.5885 246.193 47.1061 247.961 46.1415C249.568 45.1769 251.175 44.2122 252.782 43.0868C254.389 42.1222 255.514 41.6399 256.317 41.6399C257.121 41.6399 257.603 41.8007 257.924 41.9614C258.246 42.1222 258.406 42.283 258.567 42.283C258.728 42.283 258.888 42.4438 259.049 42.4438C259.21 42.4438 259.21 42.6045 259.37 42.7653C259.531 42.9261 259.692 43.0868 259.853 43.2476C260.013 43.4084 260.174 43.7299 260.174 44.0515C260.174 44.373 260.013 44.6946 259.853 45.0161C257.121 49.0354 253.907 54.1801 250.05 60.2894C255.192 57.5563 261.299 54.0193 267.888 49.8393C274.637 45.6592 278.172 43.0868 278.815 42.283C278.815 41.9614 278.976 41.9614 279.297 41.9614Z" fill="#121C4E"/>
<path d="M297.457 63.6657C299.064 63.6657 299.867 64.148 299.867 65.2734C299.867 65.9165 299.706 66.238 299.385 66.5596C299.064 66.8811 298.582 67.685 297.617 69.2927C296.653 70.9004 295.689 72.8297 294.725 75.2412C293.6 77.6528 292.957 79.7428 292.636 81.3506C292.636 81.5113 292.475 81.8329 292.475 82.3152C292.475 83.4406 292.796 84.0837 293.439 84.0837C294.082 84.0837 294.885 83.7621 295.689 83.1191C296.492 82.476 297.296 81.8329 297.939 81.1898C298.582 80.5467 299.224 79.7429 299.867 79.0998C300.51 78.4567 300.831 77.9744 300.992 77.8136C301.153 77.6528 301.313 77.6528 301.635 77.6528C301.956 77.6528 302.278 77.9744 302.438 78.6175C302.599 79.2605 302.599 79.9036 302.599 80.5467C302.599 81.1898 302.599 81.6721 302.438 81.8329C301.796 82.9583 300.51 84.4052 298.421 86.1737C296.332 87.7814 294.403 88.7461 292.796 88.7461C291.189 88.7461 289.904 88.2638 289.1 87.1384C288.297 86.1737 287.975 84.8875 287.975 83.7621C287.975 82.476 288.136 81.3506 288.618 80.3859C286.85 82.6367 284.922 84.566 282.672 86.1737C280.422 87.7814 278.494 88.5853 277.208 88.5853C275.762 88.5853 274.637 88.103 273.673 87.2991C272.548 86.1737 271.905 84.7268 271.905 82.7975C271.905 80.8683 272.387 78.939 273.191 77.0097C273.994 75.0805 275.119 73.312 276.566 71.7043C278.012 70.0965 279.458 68.6496 281.065 67.3634C284.601 64.6303 287.815 63.1833 290.707 63.1833C291.832 63.1833 292.796 63.3441 293.439 63.8264C294.082 64.3088 294.564 64.6303 294.725 65.2734C295.207 64.4695 295.689 63.9872 296.01 63.8264C296.332 63.8264 296.814 63.6657 297.457 63.6657ZM293.278 67.2026C289.743 67.2026 285.886 69.1319 282.029 73.1512C280.583 74.5982 279.458 76.3666 278.333 78.2959C277.208 80.2252 276.566 81.6721 276.566 82.476C276.566 83.2798 276.726 83.6014 277.208 83.6014C277.851 83.6014 279.458 82.476 282.19 80.0644C284.922 77.8136 286.69 76.0451 287.493 74.9197C288.618 73.6335 290.386 71.0612 293.278 67.2026Z" fill="#121C4E"/>
<path d="M310.152 70.4181C315.134 64.7911 319.312 61.8972 322.847 61.8972C323.651 61.8972 324.454 62.2188 324.936 62.7011C325.418 63.1834 325.74 63.8265 325.74 64.6304C325.74 65.4342 325.097 66.8812 323.972 68.8104C322.847 70.7397 321.722 72.3474 320.758 73.6336C320.276 74.2767 319.633 74.5982 318.99 74.5982C318.348 74.5982 317.866 74.2767 317.383 73.7943C317.062 73.312 316.901 72.6689 316.901 72.0259C316.901 70.5789 317.705 68.9712 319.312 67.0419C318.669 67.0419 316.901 68.4889 314.169 71.222C311.438 73.9551 309.027 76.3667 307.099 78.4567C305.17 80.5468 303.081 83.1191 300.831 86.1738C300.188 87.1384 299.546 87.46 299.224 87.46C298.742 87.46 298.099 87.2992 297.457 86.9776C296.814 86.6561 296.332 86.4953 296.171 86.3345C296.01 86.1738 296.01 86.013 296.01 85.6915C296.01 85.3699 296.171 85.0484 296.332 84.7268C296.492 84.4053 296.814 83.7622 297.296 83.1191C297.778 82.476 298.421 81.1898 299.385 79.5821C300.349 77.9744 301.795 75.5628 303.724 72.3474C305.652 69.132 306.777 67.2027 307.259 66.3988C308.063 64.9519 308.706 63.9873 309.188 63.3442C310.152 62.2188 311.759 61.5757 314.009 61.5757C314.491 61.5757 314.812 61.8972 314.812 62.5403C314.812 63.5049 313.848 65.4342 312.08 68.1673L310.152 70.4181Z" fill="#121C4E"/>
<path d="M337.792 80.5467C337.792 81.1898 337.792 81.6722 337.631 81.8329C336.667 83.923 334.9 85.6914 332.65 86.9776C330.4 88.2638 328.471 88.9069 326.704 88.9069C324.936 88.9069 323.65 88.4246 322.365 87.2992C321.24 86.1738 320.597 85.0484 320.597 83.923C320.597 82.7976 321.24 81.0291 322.365 78.939C323.49 76.6882 324.615 74.759 325.9 72.8297C327.186 70.9004 327.668 69.9358 327.668 69.775C327.668 69.6143 327.507 69.2927 327.025 68.8104C326.543 68.3281 326.382 68.0065 326.382 67.8458C326.382 67.685 326.864 67.0419 327.668 66.0773C328.471 65.1126 329.596 64.148 330.882 63.3442C332.168 62.3795 333.132 61.8972 333.775 61.8972C334.417 61.8972 335.06 62.2187 335.542 62.8618C336.024 63.5049 336.346 63.9872 336.346 64.4696C336.346 64.9519 333.775 69.4535 328.793 78.1352C328.793 78.2959 328.632 78.6175 328.311 78.939C327.989 79.2606 327.829 79.7429 327.668 80.0644C327.507 80.386 327.347 80.7075 327.186 81.0291C326.704 81.8329 326.543 82.6368 326.543 83.1191C326.543 83.7622 327.025 84.2445 327.989 84.2445C328.954 84.2445 329.918 83.923 331.043 83.2799C332.007 82.6368 332.971 81.8329 333.775 81.0291C335.703 78.939 336.828 77.8136 337.149 77.8136C337.471 77.6529 337.792 78.6175 337.792 80.5467ZM342.935 53.0548C342.935 54.1802 342.452 55.4663 341.328 56.5917C340.203 57.8779 339.078 58.3602 337.792 58.3602C336.506 58.3602 336.024 57.7171 336.024 56.431C336.024 55.1448 336.507 54.0194 337.631 52.7332C338.756 51.6078 339.881 50.9647 341.167 50.9647C341.81 50.9647 342.131 51.1255 342.452 51.447C342.774 51.9294 342.935 52.4117 342.935 53.0548Z" fill="#121C4E"/>
<path d="M345.024 98.2316C344.863 98.3924 344.542 98.8747 344.06 99.8393C343.578 100.804 342.935 101.769 342.292 102.733C341.649 103.698 341.007 104.662 340.042 105.466C339.078 106.27 338.435 106.753 337.793 106.913C337.15 106.913 336.828 107.074 336.668 107.074C334.739 107.074 333.775 106.109 333.775 104.18C333.775 101.929 334.9 99.1963 337.31 96.1416C338.275 95.0162 339.4 93.73 340.685 92.4438C342.132 91.1577 342.774 90.3538 342.935 90.193C343.096 90.0323 344.703 87.1384 347.595 81.3506C345.506 83.6014 343.739 85.3699 341.971 86.8168C340.203 88.2638 338.596 88.9069 336.989 89.0676H336.828C336.025 89.0676 335.221 88.7461 334.418 88.2638C333.614 87.7815 333.293 86.8168 333.293 85.3699C333.293 83.4406 333.775 81.3506 334.9 79.5821C335.221 78.939 335.864 77.8136 336.828 76.2059C337.793 74.5982 338.596 73.1512 339.4 71.7043C340.203 70.5789 341.007 69.1319 341.81 67.685C342.614 66.238 343.256 65.1126 343.578 64.3088C344.06 63.6657 344.381 63.3441 344.703 63.3441C345.024 63.3441 345.506 63.5049 346.149 63.9872C346.792 64.4695 347.113 64.9518 347.113 65.7557C347.113 66.5596 345.667 69.2927 342.935 74.2766C340.203 79.2605 338.757 82.1544 338.757 82.7975C338.757 82.9583 338.917 83.1191 339.078 83.1191C339.721 83.1191 340.846 82.3152 342.774 80.7075C344.703 79.0998 346.953 77.0097 349.202 74.4374C351.774 71.7043 353.863 69.1319 355.47 66.7203C355.63 66.3988 355.791 66.238 355.952 66.0772C356.112 65.9165 356.273 65.7557 356.434 65.4342C356.595 65.1126 356.755 64.9518 356.916 64.7911C357.077 64.6303 357.237 64.4695 357.398 64.3088C357.559 64.148 357.719 63.9872 357.88 63.8264C358.041 63.6657 358.202 63.6657 358.362 63.5049C358.523 63.3441 358.844 63.1833 359.166 63.1833C359.487 63.1833 359.809 63.1834 360.451 63.3441C361.094 63.5049 361.416 63.6657 361.416 63.8264C361.576 63.9872 361.576 64.148 361.737 64.3088C361.898 64.4695 362.058 64.7911 362.058 64.9518C362.058 65.1126 361.898 65.4342 361.737 65.7557C361.576 66.0772 360.612 67.685 358.844 70.7396C353.541 79.5821 350.006 86.1737 347.917 90.193C351.131 87.4599 355.63 83.4406 361.416 78.2959C361.576 78.1351 361.898 77.9744 362.058 77.9744C362.701 77.9744 363.023 78.939 363.023 81.029C363.023 81.6721 362.862 81.9937 362.701 82.1544C356.595 86.8168 350.649 92.1223 345.024 98.2316Z" fill="#121C4E"/>
<path d="M382.467 63.9871C382.467 65.4341 381.824 66.5595 380.699 67.6849C379.574 68.8103 378.289 69.2926 376.843 69.2926C376.36 69.2926 376.039 69.1318 375.878 68.9711C375.718 68.8103 375.718 68.4887 375.718 68.1672C375.718 67.8457 375.718 67.5241 375.878 67.2026C375.075 67.5241 374.271 67.8457 373.307 68.328C372.343 68.8103 371.218 69.6141 369.932 70.7395C368.647 71.7042 367.843 72.508 367.843 72.9904C367.843 73.1511 368.165 73.3119 368.647 73.3119C369.129 73.3119 369.932 73.1511 370.897 72.8296C371.861 72.508 372.664 72.3473 372.986 72.3473C373.468 72.3473 373.629 72.3473 373.789 72.3473C374.111 72.508 374.432 72.8296 374.753 73.3119C375.075 73.7942 375.236 74.2765 375.236 74.4373C375.236 74.5981 374.914 75.0804 374.432 75.5627C373.95 76.045 373.307 76.3666 372.504 76.6881C371.861 77.0096 371.379 77.1704 371.057 77.1704C366.558 79.582 364.469 81.3505 364.469 82.3151C364.469 83.9228 365.915 84.7267 368.647 84.7267C370.414 84.7267 372.182 84.0836 374.111 82.9582C375.718 81.9936 377.003 81.0289 378.289 80.0643C379.574 79.0997 380.378 78.4566 380.699 78.2958C381.021 78.1351 381.342 77.9743 381.503 77.9743C381.985 77.9743 382.306 78.6174 382.306 79.7428C382.306 80.8682 382.306 81.8328 382.146 82.1543C381.985 82.4759 381.503 82.9582 380.86 83.6013C376.36 87.299 372.022 89.0675 368.004 89.0675C365.915 89.0675 364.147 88.746 362.862 88.1029C360.451 86.9775 359.326 85.3698 359.326 83.119C359.326 80.2251 361.415 77.9743 365.433 76.5273C364.629 76.2058 364.147 75.7235 363.826 75.0804C363.665 74.5981 363.504 73.6334 363.504 72.3473C363.504 71.0611 364.147 69.7749 365.272 68.4887C366.397 67.0418 367.843 65.9164 369.45 65.1125C373.146 63.1833 376.521 62.0579 379.414 62.0579C380.057 62.0579 380.86 62.2186 381.503 62.5402C381.985 63.0225 382.467 63.5048 382.467 63.9871Z" fill="#121C4E"/>
<path d="M391.627 70.4181C396.609 64.7911 400.787 61.8972 404.322 61.8972C405.126 61.8972 405.929 62.2188 406.411 62.7011C406.894 63.1834 407.215 63.8265 407.215 64.6304C407.215 65.4342 406.572 66.8812 405.447 68.8104C404.322 70.7397 403.197 72.3474 402.233 73.6336C401.751 74.2767 401.108 74.5982 400.466 74.5982C399.823 74.5982 399.341 74.2767 398.859 73.7943C398.537 73.312 398.376 72.6689 398.376 72.0259C398.376 70.5789 399.18 68.9712 400.787 67.0419C400.144 67.0419 398.376 68.4889 395.645 71.222C392.913 73.9551 390.502 76.3667 388.574 78.4567C386.645 80.5468 384.556 83.1191 382.306 86.1738C381.664 87.1384 381.021 87.46 380.699 87.46C380.217 87.46 379.574 87.2992 378.932 86.9776C378.289 86.6561 377.807 86.4953 377.646 86.3345C377.485 86.1738 377.485 86.013 377.485 85.6915C377.485 85.3699 377.646 85.0484 377.807 84.7268C377.967 84.4053 378.289 83.7622 378.771 83.1191C379.253 82.476 379.896 81.1898 380.86 79.5821C381.824 77.9744 383.271 75.5628 385.199 72.3474C387.127 69.132 388.252 67.2027 388.734 66.3988C389.538 64.9519 390.181 63.9873 390.663 63.3442C391.627 62.2188 393.234 61.5757 395.484 61.5757C395.966 61.5757 396.287 61.8972 396.287 62.5403C396.287 63.5049 395.323 65.4342 393.555 68.1673L391.627 70.4181Z" fill="#121C4E"/>
</g>
<defs>
<clipPath id="clip0_58:198">
<rect width="413" height="107.074" fill="white"/>
</clipPath>
</defs>
</svg>
