<svg width="486" height="126" viewBox="0 0 486 126" fill="none" xmlns="http://www.w3.org/2000/svg">
<path fill-rule="evenodd" clip-rule="evenodd" d="M55.786 56.1892V0H17.965C18.7214 0.756757 18.9105 0.945946 19.6669 2.08108C22.5035 6.62162 21.9362 12.6757 18.5323 16.4595C17.2086 17.7838 16.2631 18.7297 13.8047 19.6757C13.9938 19.6757 14.1829 19.8649 14.372 19.8649L15.3175 20.2432C21.558 22.5135 26.6638 28.3784 27.9876 35.3784C28.9331 39.9189 27.9876 44.6486 26.4747 48.0541C25.5292 49.9459 24.5837 51.0811 23.449 52.5946C22.8817 53.3514 22.3144 53.7297 21.558 54.6757C20.9907 55.2432 19.856 56 19.4778 56.3784H55.786V56.1892Z" fill="white"/>
<path fill-rule="evenodd" clip-rule="evenodd" d="M0 56.1892H15.5066C15.6957 56 16.0739 56 17.2086 55.2432C26.6638 49.7568 27.4202 37.6487 21.3689 30.6487C18.7214 27.6216 14.7502 24.973 9.07704 24.973V18.7297C10.2117 18.7297 11.7245 18.9189 12.4809 19.1081C18.9105 16.8378 20.9907 9.27027 17.0195 3.78378C14.7502 0.945946 12.1027 0.378378 11.1572 0H0V56.1892Z" fill="white"/>
<path d="M117.813 56H76.7769V0.189209H121.027C125.377 0.189209 128.592 1.13515 130.483 3.02705C132.563 4.91894 133.508 7.94597 133.508 11.9189V18.1622C133.508 21.3784 132.752 23.8379 131.05 25.5406C130.294 26.2973 129.348 26.8649 128.213 27.4325C129.348 28 130.483 28.7568 131.239 29.7027C132.941 31.7838 133.887 34.4325 133.887 37.8379V44.6487C133.887 48.6216 132.563 51.6487 129.726 53.5406C127.079 55.0541 123.108 56 117.813 56ZM88.1232 46.3514H117.813C119.704 46.3514 121.027 45.973 121.595 45.4054C121.973 45.027 122.54 43.8919 122.54 41.2433V36.7027C122.54 34.0541 121.973 32.9189 121.595 32.5406C121.027 31.973 119.704 31.5946 117.813 31.5946H88.1232V46.3514ZM88.1232 22.1352H117.813C120.082 22.1352 121.027 21.7568 121.217 21.3784C121.784 21 121.973 20.0541 121.973 18.5406V13.2433C121.973 11.9189 121.784 10.973 121.217 10.5946C120.838 10.4054 120.082 9.83786 117.624 9.83786H88.1232V22.1352Z" fill="white"/>
<path d="M212.176 56H199.506L192.698 42.946H158.092L151.284 56H139.749L170.194 0.189209H181.163L212.176 56ZM163.008 33.6757H187.781L175.489 10.027L163.008 33.6757Z" fill="white"/>
<path d="M239.407 56H228.061V31.973L199.506 0.189209H213.878L234.112 23.2703L253.59 0.189209H267.773L239.407 31.7838V56Z" fill="white"/>
<path d="M340.578 56H321.101L287.062 33.1081V56H275.715V0.189209H287.062V21.946L318.831 0.189209H336.229L295.76 27.0541L340.578 56Z" fill="white"/>
<path d="M413.006 56H400.336L393.528 42.946H358.922L352.114 56H340.579L371.025 0.189209H381.993L413.006 56ZM364.028 33.6757H388.8L376.319 10.027L364.028 33.6757Z" fill="white"/>
<path d="M486 56H468.981L447.234 35.1892H433.24V56H421.894V0.189209H466.144C470.494 0.189209 473.708 1.13515 475.599 3.02705C477.68 4.91894 478.625 7.94597 478.625 11.9189V23.8379C478.625 27.8108 477.68 30.6487 475.599 32.5406C473.519 34.4325 470.494 35.3784 466.144 35.3784H461.606L486 56ZM433.24 25.9189H462.551C465.01 25.9189 465.955 25.3514 466.333 24.973C466.901 24.4054 467.279 23.2703 467.279 21.5676V13.8108C467.279 12.1081 466.901 10.973 466.333 10.4054C465.955 10.027 465.009 9.45948 462.74 9.45948H433.429V25.9189H433.24Z" fill="white"/>
<path d="M328.665 49.3784L329.988 49.7568C331.69 49.9459 332.258 50.8919 333.014 51.2703C333.77 51.6487 334.716 51.8378 334.716 52.5946C334.716 52.973 334.527 53.3514 334.338 53.5405C330.934 56.5676 326.584 59.7838 320.911 63.1892C312.402 68.4865 302.757 73.5946 291.978 78.5135C295.571 80.5946 300.299 83.8108 306.35 88.5405C314.482 94.5946 319.398 97.4324 321.289 97.4324C321.857 97.4324 322.424 97.2432 322.991 96.8649C323.37 96.4865 323.748 96.2973 323.748 96.2973C324.126 96.2973 324.315 96.4865 324.315 96.8649C324.315 97.2432 323.937 98.1892 322.991 99.8919C322.235 101.595 321.479 102.541 320.911 103.108C320.344 103.676 319.398 103.865 318.075 103.865C316.751 103.865 315.049 103.297 312.969 101.973C310.889 100.649 308.619 99.1351 306.161 97.2432C303.703 95.3514 301.244 93.4595 298.786 91.5676C292.546 86.6487 288.385 83.8108 286.116 83.0541C278.552 95.1622 274.581 101.405 274.391 101.784C274.202 102.162 273.824 102.541 273.635 102.73C273.257 102.919 273.068 103.108 273.068 103.108L271.555 103.297H270.231C269.853 103.297 269.664 103.297 269.475 103.486C269.286 103.676 269.096 103.676 268.907 103.676C268.718 103.676 268.529 103.865 268.529 103.865C268.34 104.054 268.151 104.054 267.962 104.054C267.773 104.054 267.395 103.865 266.827 103.486C266.449 103.108 266.071 102.73 266.071 102.351C266.071 101.973 266.26 101.595 266.638 100.838C267.016 100.081 271.555 93.2703 280.254 80.2162H279.497C277.795 80.2162 277.039 79.8378 277.039 78.8919C277.039 77.9459 277.417 77 278.363 76.2432C279.119 75.2973 280.065 74.9189 280.821 74.9189C281.577 74.9189 282.523 74.9189 283.658 75.1081C288.385 68.1081 291.978 62.8108 294.437 58.8378C291.6 61.4865 288.763 62.8108 286.305 62.8108C284.981 62.8108 284.036 62.4324 283.279 61.4865C282.523 60.5405 282.145 59.5946 282.145 58.6486C282.145 57.5135 282.334 56.7568 282.901 56C283.468 55.2432 284.036 54.8649 284.603 54.4865C285.17 54.2973 285.549 54.1081 285.738 54.1081C285.927 54.1081 286.116 54.2973 286.116 54.4865L285.738 55.4324C285.738 55.8108 286.305 56 287.251 56C288.196 56 289.709 55.4324 291.789 54.2973C293.68 53.1622 295.571 52.027 297.462 50.7027C299.353 49.5676 300.677 49 301.623 49C302.568 49 303.135 49.1892 303.514 49.3784C303.892 49.5676 304.081 49.7568 304.27 49.7568C304.459 49.7568 304.648 49.9459 304.837 49.9459C305.026 49.9459 305.026 50.1351 305.216 50.3243C305.405 50.5135 305.594 50.7027 305.783 50.8919C305.972 51.0811 306.161 51.4595 306.161 51.8378C306.161 52.2162 305.972 52.5946 305.783 52.973C302.568 57.7027 298.786 63.7568 294.247 70.9459C300.299 67.7297 307.485 63.5676 315.238 58.6486C323.181 53.7297 327.341 50.7027 328.097 49.7568C328.097 49.3784 328.286 49.3784 328.665 49.3784Z" fill="white"/>
<path d="M350.034 74.9189C351.925 74.9189 352.87 75.4865 352.87 76.8108C352.87 77.5675 352.681 77.9459 352.303 78.3243C351.925 78.7027 351.357 79.6486 350.223 81.5405C349.088 83.4324 347.953 85.7027 346.819 88.5405C345.495 91.3783 344.739 93.8378 344.36 95.7297C344.36 95.9189 344.171 96.2973 344.171 96.8648C344.171 98.1892 344.549 98.9459 345.306 98.9459C346.062 98.9459 347.008 98.5675 347.953 97.8108C348.899 97.054 349.844 96.2973 350.601 95.5405C351.357 94.7838 352.114 93.8378 352.87 93.0811C353.627 92.3243 354.005 91.7567 354.194 91.5675C354.383 91.3784 354.572 91.3783 354.95 91.3783C355.328 91.3783 355.707 91.7567 355.896 92.5135C356.085 93.2702 356.085 94.027 356.085 94.7838C356.085 95.5405 356.085 96.1081 355.896 96.2973C355.139 97.6216 353.627 99.3243 351.168 101.405C348.71 103.297 346.441 104.432 344.549 104.432C342.658 104.432 341.146 103.865 340.2 102.541C339.255 101.405 338.876 99.8919 338.876 98.5675C338.876 97.054 339.065 95.7297 339.633 94.5946C337.553 97.2432 335.283 99.5135 332.636 101.405C329.988 103.297 327.719 104.243 326.206 104.243C324.504 104.243 323.181 103.676 322.046 102.73C320.722 101.405 319.966 99.7027 319.966 97.4324C319.966 95.1621 320.533 92.8919 321.479 90.6216C322.424 88.3513 323.748 86.2702 325.45 84.3783C327.152 82.4865 328.854 80.7838 330.745 79.2702C334.905 76.054 338.687 74.3513 342.091 74.3513C343.415 74.3513 344.549 74.5405 345.306 75.1081C346.062 75.6756 346.63 76.054 346.819 76.8108C347.386 75.8648 347.953 75.2973 348.332 75.1081C348.71 75.1081 349.277 74.9189 350.034 74.9189ZM345.117 79.081C340.956 79.081 336.418 81.3513 331.879 86.081C330.177 87.7838 328.854 89.8648 327.53 92.1351C326.206 94.4054 325.45 96.1081 325.45 97.054C325.45 98 325.639 98.3783 326.206 98.3783C326.963 98.3783 328.854 97.054 332.069 94.2162C335.283 91.5675 337.363 89.4865 338.309 88.1621C339.633 86.6486 341.713 83.6216 345.117 79.081Z" fill="white"/>
<path d="M364.973 82.8649C370.835 76.2433 375.752 72.8379 379.912 72.8379C380.858 72.8379 381.803 73.2162 382.371 73.7838C382.938 74.3514 383.316 75.1081 383.316 76.0541C383.316 77 382.56 78.7027 381.236 80.973C379.912 83.2433 378.588 85.1351 377.454 86.6487C376.886 87.4054 376.13 87.7838 375.374 87.7838C374.617 87.7838 374.05 87.4054 373.483 86.8379C373.104 86.2703 372.915 85.5135 372.915 84.7568C372.915 83.0541 373.861 81.1622 375.752 78.8919C374.995 78.8919 372.915 80.5946 369.7 83.8108C366.486 87.027 363.649 89.8649 361.38 92.3243C359.111 94.7838 356.652 97.8108 354.005 101.405C353.248 102.541 352.492 102.919 352.114 102.919C351.546 102.919 350.79 102.73 350.034 102.351C349.277 101.973 348.71 101.784 348.521 101.595C348.332 101.405 348.332 101.216 348.332 100.838C348.332 100.459 348.521 100.081 348.71 99.7027C348.899 99.3243 349.277 98.5676 349.844 97.8108C350.412 97.0541 351.168 95.5406 352.303 93.6487C353.437 91.7568 355.139 88.9189 357.409 85.1351C359.678 81.3514 361.002 79.0811 361.569 78.1351C362.514 76.4324 363.271 75.2973 363.838 74.5406C364.973 73.2162 366.864 72.4595 369.511 72.4595C370.079 72.4595 370.457 72.8379 370.457 73.5946C370.457 74.7297 369.322 77 367.242 80.2162L364.973 82.8649Z" fill="white"/>
<path d="M397.499 94.7838C397.499 95.5406 397.499 96.1082 397.31 96.2973C396.175 98.7568 394.095 100.838 391.448 102.351C388.8 103.865 386.531 104.622 384.451 104.622C382.37 104.622 380.858 104.054 379.345 102.73C378.021 101.405 377.265 100.081 377.265 98.7568C377.265 97.4325 378.021 95.3514 379.345 92.8919C380.669 90.2433 381.992 87.973 383.505 85.7028C385.018 83.4325 385.585 82.2973 385.585 82.1082C385.585 81.919 385.396 81.5406 384.829 80.973C384.262 80.4055 384.072 80.0271 384.072 79.8379C384.072 79.6487 384.64 78.8919 385.585 77.7568C386.531 76.6217 387.855 75.4865 389.367 74.5406C390.88 73.4055 392.015 72.8379 392.771 72.8379C393.528 72.8379 394.284 73.2163 394.851 73.973C395.419 74.7298 395.797 75.2973 395.797 75.8649C395.797 76.4325 392.771 81.7298 386.909 91.946C386.909 92.1352 386.72 92.5136 386.342 92.8919C385.963 93.2703 385.774 93.8379 385.585 94.2163C385.396 94.5946 385.207 94.973 385.018 95.3514C384.451 96.2973 384.262 97.2433 384.262 97.8109C384.262 98.5676 384.829 99.1352 385.963 99.1352C387.098 99.1352 388.233 98.7568 389.556 98C390.691 97.2433 391.826 96.2973 392.771 95.3514C395.041 92.8919 396.364 91.5676 396.742 91.5676C397.121 91.3784 397.499 92.5136 397.499 94.7838ZM403.55 62.4325C403.55 63.7568 402.983 65.2703 401.659 66.5946C400.335 68.1082 399.012 68.6757 397.499 68.6757C395.986 68.6757 395.419 67.919 395.419 66.4055C395.419 64.8919 395.986 63.5676 397.31 62.0541C398.634 60.7298 399.957 59.973 401.47 59.973C402.227 59.973 402.605 60.1622 402.983 60.5406C403.361 61.1082 403.55 61.6757 403.55 62.4325Z" fill="white"/>
<path d="M406.009 115.595C405.82 115.784 405.441 116.351 404.874 117.486C404.307 118.622 403.55 119.757 402.794 120.892C402.038 122.027 401.281 123.162 400.147 124.108C399.012 125.054 398.255 125.622 397.499 125.811C396.743 125.811 396.364 126 396.175 126C393.906 126 392.771 124.865 392.771 122.595C392.771 119.946 394.095 116.73 396.932 113.135C398.066 111.811 399.39 110.297 400.903 108.784C402.605 107.27 403.361 106.324 403.55 106.135C403.74 105.946 405.631 102.541 409.034 95.7297C406.576 98.3783 404.496 100.459 402.416 102.162C400.336 103.865 398.445 104.622 396.554 104.811H396.364C395.419 104.811 394.473 104.432 393.528 103.865C392.582 103.297 392.204 102.162 392.204 100.459C392.204 98.1892 392.771 95.7297 394.095 93.6486C394.473 92.8919 395.23 91.5675 396.364 89.6756C397.499 87.7838 398.445 86.081 399.39 84.3783C400.336 83.054 401.281 81.3513 402.227 79.6486C403.172 77.9459 403.929 76.6216 404.307 75.6756C404.874 74.9189 405.252 74.5405 405.631 74.5405C406.009 74.5405 406.576 74.7297 407.333 75.2973C408.089 75.8648 408.467 76.4324 408.467 77.3784C408.467 78.3243 406.765 81.5405 403.55 87.4054C400.336 93.2702 398.634 96.6756 398.634 97.4324C398.634 97.6216 398.823 97.8108 399.012 97.8108C399.768 97.8108 401.092 96.8648 403.361 94.9729C405.631 93.0811 408.278 90.6216 410.926 87.5946C413.951 84.3783 416.41 81.3513 418.301 78.5135C418.49 78.1351 418.679 77.9459 418.868 77.7567C419.057 77.5675 419.246 77.3783 419.435 77C419.624 76.6216 419.813 76.4324 420.003 76.2432C420.192 76.054 420.381 75.8648 420.57 75.6756C420.759 75.4865 420.948 75.2973 421.137 75.1081C421.326 74.9189 421.515 74.9189 421.705 74.7297C421.894 74.5405 422.272 74.3513 422.65 74.3513C423.028 74.3513 423.406 74.3513 424.163 74.5405C424.919 74.7297 425.298 74.9189 425.298 75.1081C425.487 75.2973 425.487 75.4865 425.676 75.6756C425.865 75.8648 426.054 76.2432 426.054 76.4324C426.054 76.6216 425.865 77 425.676 77.3784C425.487 77.7567 424.352 79.6486 422.272 83.2432C416.031 93.6486 411.871 101.405 409.413 106.135C413.195 102.919 418.49 98.1892 425.298 92.1351C425.487 91.9459 425.865 91.7567 426.054 91.7567C426.81 91.7567 427.189 92.8919 427.189 95.3513C427.189 96.1081 426.999 96.4865 426.81 96.6756C419.624 102.162 412.627 108.405 406.009 115.595Z" fill="white"/>
<path d="M450.07 75.2972C450.07 77 449.314 78.3243 447.99 79.6486C446.666 80.9729 445.153 81.5405 443.451 81.5405C442.884 81.5405 442.506 81.3513 442.317 81.1621C442.128 80.9729 442.128 80.5945 442.128 80.2162C442.128 79.8378 442.128 79.4594 442.317 79.081C441.371 79.4594 440.426 79.8378 439.291 80.4054C438.156 80.9729 436.833 81.9189 435.32 83.2432C433.807 84.3783 432.861 85.3243 432.861 85.8918C432.861 86.081 433.24 86.2702 433.807 86.2702C434.374 86.2702 435.32 86.081 436.454 85.7027C437.589 85.3243 438.535 85.1351 438.913 85.1351C439.48 85.1351 439.669 85.1351 439.858 85.1351C440.237 85.3243 440.615 85.7027 440.993 86.2702C441.371 86.8378 441.56 87.4054 441.56 87.5945C441.56 87.7837 441.182 88.3513 440.615 88.9189C440.047 89.4864 439.291 89.8648 438.345 90.2432C437.589 90.6216 437.022 90.8108 436.644 90.8108C431.349 93.6486 428.89 95.7297 428.89 96.8648C428.89 98.7567 430.592 99.7027 433.807 99.7027C435.887 99.7027 437.967 98.9459 440.237 97.6216C442.128 96.4864 443.64 95.3513 445.153 94.2162C446.666 93.081 447.612 92.3243 447.99 92.1351C448.368 91.9459 448.746 91.7567 448.935 91.7567C449.503 91.7567 449.881 92.5135 449.881 93.8378C449.881 95.1621 449.881 96.2972 449.692 96.6756C449.503 97.054 448.935 97.6216 448.179 98.3783C442.884 102.73 437.778 104.811 433.051 104.811C430.592 104.811 428.512 104.432 426.999 103.676C424.163 102.351 422.839 100.459 422.839 97.8108C422.839 94.4054 425.297 91.7567 430.025 90.054C429.079 89.6756 428.512 89.1081 428.134 88.3513C427.945 87.7837 427.756 86.6486 427.756 85.1351C427.756 83.6216 428.512 82.1081 429.836 80.5945C431.159 78.8918 432.861 77.5675 434.752 76.6216C439.102 74.3513 443.073 73.027 446.477 73.027C447.233 73.027 448.179 73.2162 448.935 73.5946C449.503 74.1621 450.07 74.7297 450.07 75.2972Z" fill="white"/>
<path d="M460.849 82.8649C466.712 76.2433 471.628 72.8379 475.789 72.8379C476.734 72.8379 477.68 73.2162 478.247 73.7838C478.814 74.3514 479.192 75.1081 479.192 76.0541C479.192 77 478.436 78.7027 477.112 80.973C475.789 83.2433 474.465 85.1351 473.33 86.6487C472.763 87.4054 472.006 87.7838 471.25 87.7838C470.494 87.7838 469.926 87.4054 469.359 86.8379C468.981 86.2703 468.792 85.5135 468.792 84.7568C468.792 83.0541 469.737 81.1622 471.628 78.8919C470.872 78.8919 468.792 80.5946 465.577 83.8108C462.362 87.027 459.526 89.8649 457.256 92.3243C454.987 94.7838 452.529 97.8108 449.881 101.405C449.125 102.541 448.368 102.919 447.99 102.919C447.423 102.919 446.666 102.73 445.91 102.351C445.154 101.973 444.586 101.784 444.397 101.595C444.208 101.405 444.208 101.216 444.208 100.838C444.208 100.459 444.397 100.081 444.586 99.7027C444.775 99.3243 445.154 98.5676 445.721 97.8108C446.288 97.0541 447.045 95.5406 448.179 93.6487C449.314 91.7568 451.016 88.9189 453.285 85.1351C455.554 81.3514 456.878 79.0811 457.445 78.1351C458.391 76.4324 459.147 75.2973 459.715 74.5406C460.849 73.2162 462.74 72.4595 465.388 72.4595C465.955 72.4595 466.333 72.8379 466.333 73.5946C466.333 74.7297 465.199 77 463.119 80.2162L460.849 82.8649Z" fill="white"/>
</svg>
