<svg width="189" height="22" viewBox="0 0 189 22" fill="none" xmlns="http://www.w3.org/2000/svg">
<g clip-path="url(#clip0_54:107)">
<path fill-rule="evenodd" clip-rule="evenodd" d="M21.6999 21.8V0H6.9999C7.2999 0.3 7.2999 0.4 7.5999 0.8C8.6999 2.5 8.4999 4.9 7.1999 6.4C6.6999 6.9 6.2999 7.3 5.3999 7.6C5.4999 7.6 5.5999 7.7 5.5999 7.7L5.9999 7.9C8.4999 8.8 10.3999 11 10.8999 13.8C11.2999 15.6 10.8999 17.4 10.2999 18.7C9.8999 19.4 9.5999 19.9 9.0999 20.4C8.8999 20.7 8.6999 20.9 8.3999 21.2C8.1999 21.4 7.7999 21.7 7.5999 21.9H21.6999V21.8Z" fill="white"/>
<path fill-rule="evenodd" clip-rule="evenodd" d="M0 21.8H6C6.1 21.8 6.2 21.7 6.7 21.5C10.4 19.3 10.7 14.6 8.3 12C7.3 10.8 5.7 9.8 3.5 9.8V7.4C3.9 7.4 4.5 7.5 4.8 7.6C7.3 6.6 8.1 3.7 6.6 1.6C5.8 0.3 4.7 0.1 4.3 0H0V21.8Z" fill="white"/>
<path d="M45.7998 21.8H29.7998V0.0999756H46.9998C48.6998 0.0999756 49.8998 0.499976 50.6998 1.19998C51.5998 1.89998 51.9998 2.99998 51.9998 4.59998V6.99998C51.9998 8.19998 51.6998 9.19998 50.9998 9.79998C50.6998 10.1 50.2998 10.3 49.8998 10.5C50.3998 10.7 50.7998 11 51.0998 11.4C51.7998 12.2 52.0998 13.2 52.0998 14.5V17.2C52.0998 18.7 51.5998 19.9 50.4998 20.7C49.3998 21.4 47.8998 21.8 45.7998 21.8ZM34.2998 18H45.7998C46.4998 18 46.9998 17.9 47.2998 17.6C47.4998 17.4 47.6998 17 47.6998 16V14.3C47.6998 13.3 47.4998 12.9 47.2998 12.7C47.0998 12.4 46.5998 12.3 45.7998 12.3H34.2998V18ZM34.2998 8.59998H45.7998C46.6998 8.59998 46.9998 8.39998 47.0998 8.29998C47.2998 8.09998 47.3998 7.69998 47.3998 7.19998V5.09998C47.3998 4.59998 47.2998 4.19998 47.0998 3.99998C46.9998 3.89998 46.6998 3.69998 45.6998 3.69998H34.2998V8.59998Z" fill="white"/>
<path d="M82.4998 21.8H77.5998L74.9998 16.7H61.4998L58.7998 21.8H54.2998L66.1998 0.0999756H70.4998L82.4998 21.8ZM63.3998 13.1H72.9998L68.1998 3.99998L63.3998 13.1Z" fill="white"/>
<path d="M93.0996 21.8H88.6996V12.4L77.5996 0.0999756H83.1996L91.0996 9.09998L98.6996 0.0999756H104.2L93.1996 12.4V21.8H93.0996Z" fill="white"/>
<path d="M132.5 21.8H125L111.7 12.9V21.8H107.3V0.0999756H111.7V8.59998L124 0.0999756H130.8L115 10.5L132.5 21.8Z" fill="white"/>
<path d="M160.6 21.8H155.7L153 16.7H139.5L136.8 21.8H132.3L144.2 0.0999756H148.5L160.6 21.8ZM141.5 13.1H151.1L146.3 3.99998L141.5 13.1Z" fill="white"/>
<path d="M189 21.8H182.4L173.9 13.7H168.5V21.8H164.1V0.0999756H181.3C183 0.0999756 184.2 0.499976 185 1.19998C185.8 1.89998 186.2 3.09998 186.2 4.59998V9.19998C186.2 10.7 185.8 11.9 185 12.6C184.2 13.3 183 13.7 181.3 13.7H179.5L189 21.8ZM168.5 9.99998H179.9C180.9 9.99998 181.2 9.79998 181.3 9.69998C181.5 9.49998 181.6 8.99997 181.6 8.39997V5.39998C181.6 4.79998 181.5 4.29998 181.3 4.09998C181.1 3.89998 180.8 3.79998 179.9 3.79998H168.5V9.99998Z" fill="white"/>
</g>
<defs>
<clipPath id="clip0_54:107">
<rect width="189" height="21.8" fill="white"/>
</clipPath>
</defs>
</svg>
