<svg width="157" height="19" viewBox="0 0 157 19" fill="none" xmlns="http://www.w3.org/2000/svg">
<g clip-path="url(#clip0_54:125)">
<path fill-rule="evenodd" clip-rule="evenodd" d="M18.0261 18.109V0H5.81494C6.06415 0.249206 6.06415 0.332275 6.31335 0.66455C7.22711 2.07672 7.06097 4.07037 5.98108 5.3164C5.56573 5.73175 5.23346 6.06402 4.48584 6.31323C4.56891 6.31323 4.65198 6.3963 4.65198 6.3963L4.98425 6.56243C7.06097 7.31005 8.63928 9.13757 9.05462 11.4635C9.3869 12.9587 9.05462 14.454 8.55621 15.5339C8.22394 16.1153 7.97473 16.5307 7.55939 16.946C7.39325 17.1952 7.22711 17.3614 6.9779 17.6106C6.81177 17.7767 6.47949 18.0259 6.31335 18.1921H18.0261V18.109Z" fill="#111C4E"/>
<path fill-rule="evenodd" clip-rule="evenodd" d="M0 18.109H4.98413C5.0672 18.109 5.15026 18.0259 5.56561 17.8598C8.63915 16.0323 8.88836 12.128 6.89471 9.96825C6.06402 8.97143 4.73492 8.14074 2.90741 8.14074V6.14709C3.23968 6.14709 3.7381 6.23016 3.9873 6.31323C6.06402 5.48254 6.72857 3.07354 5.48254 1.3291C4.81799 0.249206 3.90423 0.0830688 3.57196 0H0V18.109Z" fill="#111C4E"/>
<path d="M38.0454 18.1091H24.7544V0.0831299H39.0422C40.4544 0.0831299 41.4512 0.415405 42.1158 0.996887C42.8634 1.57837 43.1957 2.49212 43.1957 3.82123V5.81488C43.1957 6.8117 42.9465 7.64239 42.365 8.1408C42.1158 8.39001 41.7835 8.55615 41.4512 8.72228C41.8666 8.88842 42.1988 9.13763 42.448 9.4699C43.0295 10.1345 43.2787 10.9651 43.2787 12.045V14.2879C43.2787 15.5339 42.8634 16.5307 41.9496 17.1953C41.0359 17.7768 39.7898 18.1091 38.0454 18.1091ZM28.4925 14.9524H38.0454C38.6269 14.9524 39.0422 14.8694 39.2914 14.6202C39.4576 14.454 39.6237 14.1218 39.6237 13.2911V11.8789C39.6237 11.0482 39.4576 10.7159 39.2914 10.5498C39.1253 10.3006 38.7099 10.2175 38.0454 10.2175H28.4925V14.9524ZM28.4925 7.14398H38.0454C38.793 7.14398 39.0422 6.97784 39.1253 6.89477C39.2914 6.72863 39.3745 6.39636 39.3745 5.98101V4.23657C39.3745 3.82123 39.2914 3.48895 39.1253 3.32281C39.0422 3.23974 38.793 3.07361 37.9623 3.07361H28.4925V7.14398Z" fill="#111C4E"/>
<path d="M68.5318 18.1091H64.4615L62.3017 13.8725H51.0874L48.8445 18.1091H45.1064L54.9916 0.0831299H58.5636L68.5318 18.1091ZM52.6657 10.8821H60.6403L56.653 3.32281L52.6657 10.8821Z" fill="#111C4E"/>
<path d="M77.3371 18.1091H73.6821V10.3006L64.4614 0.0831299H69.1133L75.6757 7.55932L81.9889 0.0831299H86.5577L77.4202 10.3006V18.1091H77.3371Z" fill="#111C4E"/>
<path d="M110.066 18.1091H103.836L92.7878 10.7159V18.1091H89.1328V0.0831299H92.7878V7.14398L103.005 0.0831299H108.654L95.5291 8.72228L110.066 18.1091Z" fill="#111C4E"/>
<path d="M133.408 18.1091H129.338L127.095 13.8725H115.881L113.638 18.1091H109.9L119.785 0.0831299H123.357L133.408 18.1091ZM117.542 10.8821H125.517L121.53 3.32281L117.542 10.8821Z" fill="#111C4E"/>
<path d="M157 18.1091H151.517L144.457 11.3805H139.971V18.1091H136.316V0.0831299H150.604C152.016 0.0831299 153.013 0.415405 153.677 0.996887C154.342 1.57837 154.674 2.57519 154.674 3.82123V7.64239C154.674 8.88842 154.342 9.88525 153.677 10.4667C153.013 11.0482 152.016 11.3805 150.604 11.3805H149.109L157 18.1091ZM139.971 8.30694H149.441C150.271 8.30694 150.521 8.1408 150.604 8.05773C150.77 7.89159 150.853 7.47625 150.853 6.97784V4.48578C150.853 3.98736 150.77 3.57202 150.604 3.40588C150.438 3.23974 150.188 3.15667 149.441 3.15667H139.971V8.30694Z" fill="#111C4E"/>
</g>
<defs>
<clipPath id="clip0_54:125">
<rect width="157" height="18.109" fill="white"/>
</clipPath>
</defs>
</svg>
